<?xml version="1.0" encoding="UTF-8"?>
<svg width="46px" height="43px" viewBox="0 0 46 43" version="1.1" xmlns="http://www.w3.org/2000/svg" xmlns:xlink="http://www.w3.org/1999/xlink">
    <title>Accout icon </title>
    <g id="Symbols" stroke="none" stroke-width="1" fill="none" fill-rule="evenodd">
        <g id="Accout-icon----no-bakground---logout" transform="translate(-13.000000, -15.000000)">
            <g id="Accout-icon-" transform="translate(15.000000, 16.000000)">
                <g id="Group" stroke="#000000">
                    <g id="Group-2" transform="translate(0.000000, 19.000000)" stroke-width="1.6">
                        <path d="M9.11948399,0 L41.5723,0 C42.1245848,3.67330522e-15 42.5723,0.44771525 42.5723,1 C42.5723,1.11655252 42.5519244,1.23220777 42.5120934,1.34174306 C40.4728123,6.94976608 38.4335312,12.5577891 36.3942501,18.1658121 C35.9295001,19.4438747 35.46475,20.7219374 35,22 L15.5,22 L8.5,22 L0,22 L8.18571638,0.642120059 C8.33395098,0.255351615 8.70528196,-3.25458139e-15 9.11948399,0 Z" id="Rectangle"></path>
                    </g>
                    <circle id="Oval" stroke-width="1.8" cx="24.9375" cy="6.9375" r="6.9375"></circle>
                </g>
                <g id="arrow" transform="translate(12.000000, 25.000000)" fill="#000000">
                    <line x1="18.5" y1="4.5" x2="2.6500736" y2="4.6500736" id="Line-2" stroke="#000000" stroke-width="1.6" stroke-linecap="round"></line>
                    <polygon id="Triangle" transform="translate(2.500000, 4.500000) rotate(-90.000000) translate(-2.500000, -4.500000) " points="2.5 2 7 7 2.5 7 -2 7"></polygon>
                </g>
            </g>
        </g>
    </g>
</svg>